<svg width="100" height="100" viewBox="0 0 100 100" fill="none" xmlns="http://www.w3.org/2000/svg">
<path d="M35.5285 42.1667C34.2038 42.872 33.7016 44.5176 34.4069 45.8424C35.1121 47.1671 36.7578 47.6692 38.0825 46.964L35.5285 42.1667ZM24.1763 5.19333C35.3366 16.2278 39.0947 25.169 39.6098 31.3927C40.1287 37.6632 37.4222 41.1585 35.5285 42.1667L38.0825 46.964C42.3137 44.7113 45.681 38.8587 45.0261 30.9445C44.3672 22.9834 39.7036 12.9028 27.9975 1.32865L24.1763 5.19333Z" fill="#969696"/>
<path d="M23.9131 0.988144C23.9131 0.442408 24.3555 0 24.9012 0C27.357 0 29.3479 1.99083 29.3479 4.44664V51.087C29.3479 51.6873 28.8612 52.1739 28.2609 52.1739H23.9131V0.988144Z" fill="#CDCDCD"/>
<path d="M53.2607 38.2612C53.2607 36.4932 54.3314 34.9012 55.9688 34.2344L94.0123 18.7427C96.8718 17.5782 99.9999 19.682 99.9999 22.7694V35.8661L53.2607 55.4349V38.2612Z" fill="#969696"/>
<path d="M53.2607 63.0435L58.6955 60.8696V90.2175H53.2607V63.0435Z" fill="#CDCDCD"/>
<path d="M94.5654 44.5653L100 42.3914V71.7392H94.5654V44.5653Z" fill="#CDCDCD"/>
<ellipse cx="14.6739" cy="52.7175" rx="14.6739" ry="11.413" fill="#EA544D"/>
<ellipse cx="85.3263" cy="71.1958" rx="14.6739" ry="11.413" fill="#EA544D"/>
<ellipse cx="44.0216" cy="88.5869" rx="14.6739" ry="11.413" fill="#EA544D"/>
</svg>
